<svg xmlns="http://www.w3.org/2000/svg" width="1493" height="702" viewBox="0 0 1493 702">
<g>
<path d="M 669.65 619.03 C663.13,620.49 635.03,621.18 628.76,620.03 C615.30,617.58 601.60,610.23 594.65,601.75 C592.68,599.35 589.62,594.28 587.84,590.48 C584.95,584.29 584.57,582.44 584.22,572.54 C584.21,572.18 584.19,571.84 584.18,571.51 C584.12,569.75 584.06,568.29 584.08,566.83 C584.18,559.33 586.19,551.85 598.50,504.50 C599.78,499.55 603.60,484.70 606.99,471.50 C610.37,458.30 615.11,440.08 617.51,431.00 C619.92,421.92 624.39,404.83 627.45,393.00 C630.50,381.17 634.14,367.23 635.52,362.00 C636.91,356.77 640.75,341.92 644.07,329.00 C647.38,316.08 650.33,304.71 650.61,303.75 C651.10,302.13 649.86,302.00 634.27,302.00 C617.82,302.00 617.30,301.94 613.41,299.41 C608.39,296.16 604.97,291.23 604.32,286.31 C603.74,281.90 616.96,227.57 619.78,222.80 C621.82,219.35 627.46,215.30 632.08,213.98 C633.95,213.44 644.35,213.00 655.18,213.00 C666.02,213.00 675.10,212.65 675.36,212.23 C675.62,211.80 677.41,205.39 679.33,197.98 C694.67,138.85 706.48,96.65 709.48,90.27 C713.91,80.85 720.52,73.86 728.87,69.74 L 735.45 66.50 L 774.48 66.20 C795.94,66.03 814.91,66.15 816.63,66.47 C818.35,66.79 820.94,68.14 822.38,69.47 C826.13,72.95 825.82,77.43 820.54,96.44 C818.09,105.28 814.10,120.15 811.66,129.50 C809.23,138.85 804.92,155.27 802.09,166.00 C793.42,198.85 791.19,207.39 790.58,210.19 L 789.99 212.88 L 816.75 213.19 C840.24,213.46 843.90,213.72 846.79,215.30 C851.42,217.82 853.99,222.49 854.00,228.35 C854.00,233.36 839.91,289.27 837.42,294.13 C836.68,295.58 834.67,297.94 832.96,299.38 L 829.85 302.00 L 766.26 302.00 L 763.05 314.25 C761.28,320.99 754.95,344.95 748.98,367.50 C737.05,412.55 730.61,437.15 722.82,467.50 C716.98,490.21 716.93,493.14 722.33,498.52 C731.37,507.54 752.52,501.29 787.92,479.15 C808.66,466.17 829.47,450.27 862.00,422.55 C919.78,373.32 937.45,362.77 964.56,361.31 C978.82,360.54 988.14,362.48 1000.36,368.76 C1015.53,376.56 1026.90,389.90 1034.03,408.26 C1035.60,412.30 1039.62,425.81 1042.96,438.28 C1049.97,464.42 1053.46,474.86 1059.46,487.62 C1074.61,519.83 1097.45,534.60 1124.34,529.56 C1145.11,525.67 1167.29,515.29 1213.99,487.59 C1227.04,479.86 1228.99,479.00 1233.52,479.00 C1236.38,479.00 1239.48,479.65 1240.70,480.50 C1243.73,482.63 1245.34,488.23 1244.52,493.82 C1243.93,497.89 1242.98,499.35 1237.17,505.05 C1228.43,513.63 1200.41,534.49 1175.97,550.62 C1110.29,593.95 1053.33,616.56 1014.53,614.69 C964.53,612.29 922.19,574.40 901.47,513.50 C894.85,494.05 890.60,487.25 882.33,482.82 C875.90,479.38 871.04,478.64 864.19,480.06 C856.94,481.56 850.76,484.67 839.50,492.51 C830.79,498.58 796.77,524.24 782.50,535.52 C778.65,538.56 766.94,547.67 756.48,555.77 C746.02,563.87 725.66,579.72 711.23,591.00 C681.26,614.41 676.78,617.43 669.65,619.03 ZM 277.26 614.58 C266.23,616.44 240.71,617.19 231.50,615.92 C216.12,613.80 199.08,608.62 186.51,602.25 C168.45,593.10 146.52,573.29 134.70,555.43 C122.82,537.48 112.62,513.20 107.65,491.00 C103.88,474.20 102.74,460.54 103.28,438.76 C103.88,414.30 105.74,401.78 112.17,379.00 C127.09,326.12 154.13,282.49 191.50,251.00 C218.58,228.19 253.04,213.16 291.13,207.56 C307.76,205.12 347.69,205.39 363.39,208.06 C385.16,211.75 408.99,218.93 419.97,225.10 C426.74,228.91 426.74,229.10 419.50,257.28 C407.23,304.97 402.05,324.50 401.11,326.62 C399.21,330.86 395.88,330.41 382.79,324.10 C358.58,312.44 338.53,308.47 316.28,310.95 C303.40,312.39 296.64,314.15 286.52,318.70 C274.24,324.23 265.46,330.46 254.44,341.46 C234.88,361.00 220.81,388.11 215.43,416.65 C213.34,427.77 213.93,453.20 216.50,462.50 C220.82,478.12 233.06,494.11 246.33,501.47 C257.22,507.51 266.65,510.06 280.50,510.69 C299.26,511.55 315.38,508.06 334.89,498.93 C344.60,494.38 348.70,493.99 351.81,497.30 C355.07,500.77 355.42,504.76 353.17,512.56 C349.71,524.52 343.17,548.69 337.59,570.20 C334.35,582.67 331.35,592.10 330.04,593.94 C324.80,601.31 301.25,610.51 277.26,614.58 ZM 483.34 610.00 L 479.93 613.00 L 436.68 613.00 C393.79,613.00 393.39,612.98 389.02,610.75 C383.49,607.92 379.46,602.88 377.84,596.73 C376.65,592.26 376.84,590.92 380.79,575.23 C386.55,552.38 395.21,519.33 404.83,483.50 C409.26,467.00 414.71,446.42 416.93,437.77 C420.67,423.22 432.63,378.62 438.45,357.50 C439.82,352.55 442.07,344.23 443.46,339.00 C454.22,298.59 471.22,235.52 472.54,231.13 C474.76,223.73 481.48,217.06 489.11,214.66 C494.18,213.07 498.99,212.93 538.78,213.20 L 582.84 213.50 L 585.41 215.91 C589.03,219.31 589.47,223.38 587.17,232.05 C585.38,238.81 569.66,296.97 562.99,321.50 C561.50,327.00 557.91,340.50 555.03,351.50 C552.14,362.50 546.94,382.08 543.48,395.00 C532.57,435.67 527.19,455.95 522.54,474.00 C517.94,491.84 515.15,502.41 511.98,514.00 C506.81,532.90 500.41,557.05 495.03,578.00 C487.93,605.66 487.76,606.12 483.34,610.00 ZM 1015.03 301.96 C998.04,304.05 987.12,302.17 977.45,295.51 C966.93,288.26 962.60,279.98 962.56,267.00 C962.53,259.64 962.97,257.44 965.80,250.59 C975.53,227.03 997.47,194.84 1011.28,183.84 C1030.77,168.32 1057.43,166.98 1078.49,180.45 C1101.25,195.01 1112.98,224.27 1105.61,248.10 C1101.47,261.48 1090.78,273.97 1076.66,281.92 C1061.22,290.61 1033.17,299.73 1015.03,301.96 ZM 571.30 173.39 C558.95,176.15 548.23,174.70 535.20,168.52 C521.15,161.84 508.95,146.72 505.94,132.23 C504.22,123.93 505.22,107.86 507.89,100.89 C513.66,85.84 526.61,73.50 542.51,67.91 C549.79,65.35 563.52,64.40 571.50,65.90 C584.89,68.41 598.59,77.67 606.12,89.31 C612.19,98.69 614.43,106.70 614.43,119.00 C614.43,127.30 613.95,130.90 612.15,136.19 C605.92,154.51 589.71,169.28 571.30,173.39 Z" fill="rgb(5,175,120)"/>
<path d="M 0.00 351.00 L 0.00 0.00 L 746.50 0.00 L 1493.00 0.00 L 1493.00 351.00 L 1493.00 702.00 L 746.50 702.00 L 0.00 702.00 L 0.00 351.00 ZM 669.65 619.03 C676.78,617.43 681.26,614.41 711.23,591.00 C725.66,579.72 746.02,563.87 756.48,555.77 C766.94,547.67 778.65,538.56 782.50,535.52 C796.77,524.24 830.79,498.58 839.50,492.51 C850.76,484.67 856.94,481.56 864.19,480.06 C871.04,478.64 875.90,479.38 882.33,482.82 C890.60,487.25 894.85,494.05 901.47,513.50 C922.19,574.40 964.53,612.29 1014.53,614.69 C1053.33,616.56 1110.29,593.95 1175.97,550.62 C1200.41,534.49 1228.43,513.63 1237.17,505.05 C1242.98,499.35 1243.93,497.89 1244.52,493.82 C1245.34,488.23 1243.73,482.63 1240.70,480.50 C1239.48,479.65 1236.38,479.00 1233.52,479.00 C1228.99,479.00 1227.04,479.86 1213.99,487.59 C1167.29,515.29 1145.11,525.67 1124.34,529.56 C1097.45,534.60 1074.61,519.83 1059.46,487.62 C1053.46,474.86 1049.97,464.42 1042.96,438.28 C1039.62,425.81 1035.60,412.30 1034.03,408.26 C1026.90,389.90 1015.53,376.56 1000.36,368.76 C988.14,362.48 978.82,360.54 964.56,361.31 C937.45,362.77 919.78,373.32 862.00,422.55 C829.47,450.27 808.66,466.17 787.92,479.15 C752.52,501.29 731.37,507.54 722.33,498.52 C716.93,493.14 716.98,490.21 722.82,467.50 C730.61,437.15 737.05,412.55 748.98,367.50 C754.95,344.95 761.28,320.99 763.05,314.25 L 766.26 302.00 L 798.05 302.00 L 829.85 302.00 L 832.96 299.38 C834.67,297.94 836.68,295.58 837.42,294.13 C839.91,289.27 854.00,233.36 854.00,228.35 C853.99,222.49 851.42,217.82 846.79,215.30 C843.90,213.72 840.24,213.46 816.75,213.19 L 789.99 212.88 L 790.58 210.19 C791.19,207.39 793.42,198.85 802.09,166.00 C804.92,155.27 809.23,138.85 811.66,129.50 C814.10,120.15 818.09,105.28 820.54,96.44 C825.82,77.43 826.13,72.95 822.38,69.47 C820.94,68.14 818.35,66.79 816.63,66.47 C814.91,66.15 795.94,66.03 774.48,66.20 L 735.45 66.50 L 728.87 69.74 C720.52,73.86 713.91,80.85 709.48,90.27 C706.48,96.65 694.67,138.85 679.33,197.98 C677.41,205.39 675.62,211.80 675.36,212.23 C675.10,212.65 666.02,213.00 655.18,213.00 C644.35,213.00 633.95,213.44 632.08,213.98 C627.46,215.30 621.82,219.35 619.78,222.80 C616.96,227.57 603.74,281.90 604.32,286.31 C604.97,291.23 608.39,296.16 613.41,299.41 C617.30,301.94 617.82,302.00 634.27,302.00 C649.86,302.00 651.10,302.13 650.61,303.75 C650.33,304.71 647.38,316.08 644.07,329.00 C640.75,341.92 636.91,356.77 635.52,362.00 C634.14,367.23 630.50,381.17 627.45,393.00 C624.39,404.83 619.92,421.92 617.51,431.00 C615.11,440.08 610.37,458.30 606.99,471.50 C603.60,484.70 599.78,499.55 598.50,504.50 C583.34,562.81 583.79,560.65 584.22,572.54 C584.57,582.44 584.95,584.29 587.84,590.48 C589.62,594.28 592.68,599.35 594.65,601.75 C601.60,610.23 615.30,617.58 628.76,620.03 C635.03,621.18 663.13,620.49 669.65,619.03 ZM 277.26 614.58 C301.25,610.51 324.80,601.31 330.04,593.94 C331.35,592.10 334.35,582.67 337.59,570.20 C343.17,548.69 349.71,524.52 353.17,512.56 C355.42,504.76 355.07,500.77 351.81,497.30 C348.70,493.99 344.60,494.38 334.89,498.93 C315.38,508.06 299.26,511.55 280.50,510.69 C266.65,510.06 257.22,507.51 246.33,501.47 C233.06,494.11 220.82,478.12 216.50,462.50 C213.93,453.20 213.34,427.77 215.43,416.65 C220.81,388.11 234.88,361.00 254.44,341.46 C265.46,330.46 274.24,324.23 286.52,318.70 C296.64,314.15 303.40,312.39 316.28,310.95 C338.53,308.47 358.58,312.44 382.79,324.10 C395.88,330.41 399.21,330.86 401.11,326.62 C402.05,324.50 407.23,304.97 419.50,257.28 C426.74,229.10 426.74,228.91 419.97,225.10 C408.99,218.93 385.16,211.75 363.39,208.06 C347.69,205.39 307.76,205.12 291.13,207.56 C253.04,213.16 218.58,228.19 191.50,251.00 C154.13,282.49 127.09,326.12 112.17,379.00 C105.74,401.78 103.88,414.30 103.28,438.76 C102.74,460.54 103.88,474.20 107.65,491.00 C112.62,513.20 122.82,537.48 134.70,555.43 C146.52,573.29 168.45,593.10 186.51,602.25 C199.08,608.62 216.12,613.80 231.50,615.92 C240.71,617.19 266.23,616.44 277.26,614.58 ZM 483.34 610.00 C487.76,606.12 487.93,605.66 495.03,578.00 C500.41,557.05 506.81,532.90 511.98,514.00 C515.15,502.41 517.94,491.84 522.54,474.00 C527.19,455.95 532.57,435.67 543.48,395.00 C546.94,382.08 552.14,362.50 555.03,351.50 C557.91,340.50 561.50,327.00 562.99,321.50 C569.66,296.97 585.38,238.81 587.17,232.05 C589.47,223.38 589.03,219.31 585.41,215.91 L 582.84 213.50 L 538.78 213.20 C498.99,212.93 494.18,213.07 489.11,214.66 C481.48,217.06 474.76,223.73 472.54,231.13 C471.22,235.52 454.22,298.59 443.46,339.00 C442.07,344.23 439.82,352.55 438.45,357.50 C432.63,378.62 420.67,423.22 416.93,437.77 C414.71,446.42 409.26,467.00 404.83,483.50 C395.21,519.33 386.55,552.38 380.79,575.23 C376.84,590.92 376.65,592.26 377.84,596.73 C379.46,602.88 383.49,607.92 389.02,610.75 C393.39,612.98 393.79,613.00 436.68,613.00 L 479.93 613.00 L 483.34 610.00 ZM 1015.03 301.96 C1033.17,299.73 1061.22,290.61 1076.66,281.92 C1090.78,273.97 1101.47,261.48 1105.61,248.10 C1112.98,224.27 1101.25,195.01 1078.49,180.45 C1057.43,166.98 1030.77,168.32 1011.28,183.84 C997.47,194.84 975.53,227.03 965.80,250.59 C962.97,257.44 962.53,259.64 962.56,267.00 C962.60,279.98 966.93,288.26 977.45,295.51 C987.12,302.17 998.04,304.05 1015.03,301.96 ZM 571.30 173.39 C589.71,169.28 605.92,154.51 612.15,136.19 C613.95,130.90 614.43,127.30 614.43,119.00 C614.43,106.70 612.19,98.69 606.12,89.31 C598.59,77.67 584.89,68.41 571.50,65.90 C563.52,64.40 549.79,65.35 542.51,67.91 C526.61,73.50 513.66,85.84 507.89,100.89 C505.22,107.86 504.22,123.93 505.94,132.23 C508.95,146.72 521.15,161.84 535.20,168.52 C548.23,174.70 558.95,176.15 571.30,173.39 Z" fill="rgb(253,253,253)"/>
</g>
</svg>